<?xml version="1.0" standalone="no"?><!DOCTYPE svg PUBLIC "-//W3C//DTD SVG 1.1//EN" "http://www.w3.org/Graphics/SVG/1.1/DTD/svg11.dtd"><svg t="1640079301110" class="icon" viewBox="0 0 1024 1024" version="1.1" xmlns="http://www.w3.org/2000/svg" p-id="1947" xmlns:xlink="http://www.w3.org/1999/xlink" width="48" height="48"><defs><style type="text/css"></style></defs><path d="M753.92 951.296H271.104c-109.568 0-198.4-88.832-198.4-198.4V270.08c0-109.568 88.832-198.4 198.4-198.4H753.92c109.568 0 198.4 88.832 198.4 198.4v482.816c0.128 109.568-88.832 198.4-198.4 198.4z" fill="#D749DC" p-id="1948"></path><path d="M518.4 690.56l174.464 116.48c8.192 5.504 18.816-2.176 16.128-11.776l-56.832-201.856c-1.152-4.096 0.256-8.576 3.712-11.264L820.48 452.224c7.808-6.144 3.712-18.56-6.144-18.944L604.8 424.96c-4.352-0.128-8.064-2.944-9.6-6.912l-72.704-196.736c-3.456-9.216-16.512-9.216-19.968 0l-72.704 196.736c-1.536 3.968-5.248 6.784-9.6 6.912l-209.536 8.32c-9.856 0.384-13.952 12.8-6.144 18.944l164.608 129.92c3.328 2.688 4.864 7.04 3.712 11.264l-56.832 201.856c-2.688 9.472 7.936 17.152 16.128 11.776l174.464-116.48c3.584-2.432 8.192-2.432 11.776 0z" fill="#F6DEF6" p-id="1949"></path><path d="M512.512 684.032l-135.424-98.432L428.8 426.24h167.552l51.712 159.36z" fill="#FFFFFF" p-id="1950"></path></svg>