<?xml version="1.0" standalone="no"?><!DOCTYPE svg PUBLIC "-//W3C//DTD SVG 1.1//EN" "http://www.w3.org/Graphics/SVG/1.1/DTD/svg11.dtd"><svg t="1640079255140" class="icon" viewBox="0 0 1024 1024" version="1.1" xmlns="http://www.w3.org/2000/svg" p-id="1608" width="48" height="48" xmlns:xlink="http://www.w3.org/1999/xlink"><defs><style type="text/css"></style></defs><path d="M511.104 1024c-105.941333 0-208.981333-33.152-296.704-96.512a508.970667 508.970667 0 0 1-205.397333-333.098667 510.122667 510.122667 0 0 1 89.216-381.312 505.6 505.6 0 0 1 331.946666-206.293333 504.746667 504.746667 0 0 1 379.562667 89.770667 509.184 509.184 0 0 1 205.44 333.098666 510.293333 510.293333 0 0 1-89.216 381.354667 505.813333 505.813333 0 0 1-331.946667 206.293333c-27.690667 4.48-55.424 6.698667-82.901333 6.698667z m-276.224-124.842667a470.272 470.272 0 0 0 353.450667 83.626667 471.210667 471.210667 0 0 0 309.162666-192.170667c152.874667-213.504 104.32-512.170667-108.288-665.770666a470.272 470.272 0 0 0-353.450666-83.626667A471.296 471.296 0 0 0 126.634667 233.386667C-26.282667 446.890667 22.314667 745.557333 234.88 899.157333z m452.522667-151.552a88.746667 88.746667 0 0 0 62.208-62.634666l2.645333-9.216 0.341333-246.912c0.256-184.917333 0-248.064-1.024-251.52a22.826667 22.826667 0 0 0-5.034666-9.130667 21.930667 21.930667 0 0 0-11.776-3.114667c-3.114667 0-13.866667 1.493333-23.893334 3.328-44.416 8.106667-306.176 60.202667-310.656 61.866667a33.536 33.536 0 0 0-17.024 15.104l-2.773333 5.461333s-1.322667 387.029333-3.328 391.381334a29.866667 29.866667 0 0 1-16.042667 14.933333 402.261333 402.261333 0 0 1-25.984 5.845333c-52.522667 10.453333-72.021333 17.962667-88.533333 34.176-9.386667 9.216-16.298667 21.76-19.328 34.944-2.858667 12.586667-1.92 31.445333 2.176 42.922667 4.266667 11.989333 11.178667 22.229333 20.181333 30.293333 8.192 6.314667 17.877333 11.008 28.757334 13.824 24.021333 6.144 69.034667-0.682667 92.074666-13.994666a100.693333 100.693333 0 0 0 28.458667-26.837334c2.56-3.797333 6.4-11.434667 8.533333-17.024 7.509333-19.456 7.722667-366.165333 8.704-370.517333a18.773333 18.773333 0 0 1 13.653334-14.677333c6.272-1.664 258.346667-51.498667 265.472-52.48 6.229333-0.853333 12.117333 1.152 15.36 5.12a12.373333 12.373333 0 0 1 4.650666 4.096c2.048 3.029333 2.176 9.088 2.474667 118.826666 0.341333 126.336 0.512 123.392-6.357333 131.370667-4.992 5.802667-11.221333 8.064-36.864 13.269333-38.997333 7.978667-52.309333 11.733333-67.242667 19.029334-18.645333 9.088-28.970667 19.072-36.992 35.669333a67.413333 67.413333 0 0 0-7.765333 32.170667c0.042667 20.864 7.210667 37.162667 23.466666 53.12 1.493333 1.450667 2.944 2.816 4.437334 4.138666 8.192 6.314667 16.512 10.154667 27.008 12.544 15.786667 3.498667 47.957333 1.066667 70.016-5.376z" p-id="1609"></path></svg>