<?xml version="1.0" standalone="no"?><!DOCTYPE svg PUBLIC "-//W3C//DTD SVG 1.1//EN" "http://www.w3.org/Graphics/SVG/1.1/DTD/svg11.dtd"><svg t="1640084470564" class="icon" viewBox="0 0 1024 1024" version="1.1" xmlns="http://www.w3.org/2000/svg" p-id="2099" xmlns:xlink="http://www.w3.org/1999/xlink" width="48" height="48"><defs><style type="text/css"></style></defs><path d="M512 288m37.28 0l341.44 0q37.28 0 37.28 37.28l0 341.44q0 37.28-37.28 37.28l-341.44 0q-37.28 0-37.28-37.28l0-341.44q0-37.28 37.28-37.28Z" fill="#2B7CD3" p-id="2100"></path><path d="M720 288a36.608 36.608 0 0 1-10.88 26.4L544 479.52l-5.6 5.6a33.344 33.344 0 0 1-10.4 7.36 37.04 37.04 0 0 1-16 3.52 36.608 36.608 0 0 1-26.4-10.88L314.88 314.4a37.68 37.68 0 0 1-7.36-42.4 34.544 34.544 0 0 1 7.36-10.24L485.6 90.88a37.36 37.36 0 0 1 52.8 0l170.72 170.88A36.272 36.272 0 0 1 720 288z" fill="#41A5EE" p-id="2101"></path><path d="M720 704a208 208 0 0 1-400 80c-2.24-5.28-4.16-10.56-5.92-16-1.76-5.28-3.2-10.56-4.48-16A208.048 208.048 0 0 1 512 496a132.24 132.24 0 0 1 16 0.8 133.728 133.728 0 0 1 16 1.6A208.08 208.08 0 0 1 720 704z" fill="#103F91" p-id="2102"></path><path d="M528 325.28v421.44a27.744 27.744 0 0 1-0.64 6.4A37.024 37.024 0 0 1 490.72 784H320c-2.24-5.28-4.16-10.56-5.92-16-1.76-5.28-3.2-10.56-4.48-16A208.048 208.048 0 0 1 512 496a36.608 36.608 0 0 1-26.4-10.88L314.88 314.4A36.64 36.64 0 0 1 304 288h186.72A37.088 37.088 0 0 1 528 325.28z" p-id="2103"></path><path d="M544 325.28v389.44A53.792 53.792 0 0 1 490.72 768H314.08c-1.76-5.28-3.2-10.56-4.48-16A208.048 208.048 0 0 1 512 496a36.608 36.608 0 0 1-26.4-10.88L314.88 314.4a37.68 37.68 0 0 1-7.36-42.4h183.2A53.856 53.856 0 0 1 544 325.28z" p-id="2104"></path><path d="M528 325.28v389.44A37.216 37.216 0 0 1 490.72 752H309.6A208.048 208.048 0 0 1 512 496a36.608 36.608 0 0 1-26.4-10.88L314.88 314.4A36.64 36.64 0 0 1 304 288h186.72A37.088 37.088 0 0 1 528 325.28z" p-id="2105"></path><path d="M512 325.28V496a36.608 36.608 0 0 1-26.4-10.88L314.88 314.4A36.64 36.64 0 0 1 304 288h170.72A37.216 37.216 0 0 1 512 325.28z" p-id="2106"></path><path d="M512 496v218.72A37.216 37.216 0 0 1 474.72 752H309.6A208.048 208.048 0 0 1 512 496z" p-id="2107"></path><path d="M64 288m37.328 0l373.344 0q37.328 0 37.328 37.328l0 373.344q0 37.328-37.328 37.328l-373.344 0q-37.328 0-37.328-37.328l0-373.344q0-37.328 37.328-37.328Z" fill="#185ABD" p-id="2108"></path><path d="M275.728 551.264q10.32 30.288 12.192 38.24h0.848q1.856-7.952 13.2-40.96l54.32-157.872h49.92l-92.064 242.656h-53.472l-90.88-242.656h51.44z" fill="#FFFFFF" p-id="2109"></path></svg>